<svg xmlns="http://www.w3.org/2000/svg" viewBox="0 0 800 1100"><defs><linearGradient id="bg26" x1="0" y1="0" x2="0" y2="1"><stop offset="0%" stop-color="#fff"/><stop offset="100%" stop-color="#f5f5f5"/></linearGradient><linearGradient id="gr26" x1="0" y1="0" x2="1" y2="1"><stop offset="0%" stop-color="#CD2727"/><stop offset="100%" stop-color="#9b1a1a"/></linearGradient></defs><rect width="800" height="1100" fill="url(#bg26)"/><rect x="40" y="40" width="720" height="1020" rx="20" fill="none" stroke="#CD2727" stroke-width="2"/><polygon points="400,180 320,380 280,280 400,240 520,280 480,380" fill="#CD2727"/><rect x="160" y="460" width="480" height="200" rx="16" fill="#373F41"/><rect x="180" y="450" width="440" height="60" rx="12" fill="#CD2727"/><rect x="160" y="460" width="480" height="200" rx="16" fill="none" stroke="#CD2727" stroke-width="2" stroke-dasharray="10,5"/><text x="400" y="560" font-family="Arial,sans-serif" font-size="18" font-weight="bold" fill="#CD2727" text-anchor="middle">HAZMAT SHIPPING</text><rect x="100" y="720" width="600" height="80" rx="12" fill="url(#gr26)"/><text x="400" y="768" font-family="Arial,sans-serif" font-size="38" font-weight="bold" fill="white" text-anchor="middle">HAZMAT SHIPPING</text><text x="400" y="850" font-family="Arial,sans-serif" font-size="26" fill="#373F41" text-anchor="middle">Dangerous goods handled safely</text><text x="400" y="900" font-family="Arial,sans-serif" font-size="20" fill="#999" text-anchor="middle">IATA certified • Full compliance</text><rect x="280" y="950" width="240" height="60" rx="30" fill="#CD2727"/><text x="400" y="990" font-family="Arial,sans-serif" font-size="16" font-weight="bold" fill="white" text-anchor="middle">AIRPAK EXPRESS</text></svg>