<svg xmlns="http://www.w3.org/2000/svg" viewBox="0 0 800 1100"><defs><linearGradient id="bg23" x1="0" y1="0" x2="0" y2="1"><stop offset="0%" stop-color="#fff"/><stop offset="100%" stop-color="#f5f5f5"/></linearGradient><linearGradient id="gr23" x1="0" y1="0" x2="1" y2="1"><stop offset="0%" stop-color="#CD2727"/><stop offset="100%" stop-color="#9b1a1a"/></linearGradient></defs><rect width="800" height="1100" fill="url(#bg23)"/><rect x="40" y="40" width="720" height="1020" rx="20" fill="none" stroke="#CD2727" stroke-width="2"/><text x="400" y="300" font-family="Arial,sans-serif" font-size="28" font-weight="bold" fill="#CD2727" text-anchor="middle" letter-spacing="2">&lt;/&gt;</text><rect x="180" y="330" width="440" height="200" rx="12" fill="#373F41"/><rect x="200" y="350" width="120" height="30" rx="6" fill="#CD2727"/><rect x="340" y="350" width="60" height="30" rx="6" fill="#555"/><line x1="200" y1="400" x2="580" y2="400" stroke="#555" stroke-width="2"/><line x1="200" y1="430" x2="540" y2="430" stroke="#555" stroke-width="2"/><line x1="200" y1="460" x2="500" y2="460" stroke="#555" stroke-width="2"/><rect x="100" y="680" width="600" height="80" rx="12" fill="url(#gr23)"/><text x="400" y="728" font-family="Arial,sans-serif" font-size="42" font-weight="bold" fill="white" text-anchor="middle">API INTEGRATION</text><text x="400" y="810" font-family="Arial,sans-serif" font-size="26" fill="#373F41" text-anchor="middle">Connect your systems</text><text x="400" y="860" font-family="Arial,sans-serif" font-size="20" fill="#999" text-anchor="middle">REST API • Webhooks • EDI</text><rect x="280" y="950" width="240" height="60" rx="30" fill="#CD2727"/><text x="400" y="990" font-family="Arial,sans-serif" font-size="16" font-weight="bold" fill="white" text-anchor="middle">AIRPAK EXPRESS</text></svg>