<svg xmlns="http://www.w3.org/2000/svg" viewBox="0 0 800 1100"><defs><linearGradient id="bg19" x1="0" y1="0" x2="0" y2="1"><stop offset="0%" stop-color="#fff"/><stop offset="100%" stop-color="#f5f5f5"/></linearGradient><linearGradient id="gr19" x1="0" y1="0" x2="1" y2="1"><stop offset="0%" stop-color="#CD2727"/><stop offset="100%" stop-color="#9b1a1a"/></linearGradient></defs><rect width="800" height="1100" fill="url(#bg19)"/><rect x="40" y="40" width="720" height="1020" rx="20" fill="none" stroke="#CD2727" stroke-width="2"/><rect x="200" y="280" width="400" height="260" rx="16" fill="#CD2727"/><rect x="230" y="270" width="340" height="40" rx="8" fill="#9b1a1a"/><rect x="200" y="280" width="400" height="260" rx="16" fill="none" stroke="#fff" stroke-width="2"/><rect x="240" y="350" width="320" height="60" rx="8" fill="#fff" opacity="0.15"/><rect x="240" y="430" width="200" height="60" rx="8" fill="#fff" opacity="0.1"/><text x="400" y="610" font-family="Arial,sans-serif" font-size="22" font-weight="bold" fill="#CD2727" text-anchor="middle">NEXT DAY DELIVERY</text><rect x="100" y="680" width="600" height="80" rx="12" fill="url(#gr19)"/><text x="400" y="728" font-family="Arial,sans-serif" font-size="42" font-weight="bold" fill="white" text-anchor="middle">NEXT DAY DELIVERY</text><text x="400" y="810" font-family="Arial,sans-serif" font-size="26" fill="#373F41" text-anchor="middle">Tomorrow's delivery, booked today</text><text x="400" y="860" font-family="Arial,sans-serif" font-size="20" fill="#999" text-anchor="middle">Nationwide • Time-definite • Guaranteed</text><rect x="280" y="950" width="240" height="60" rx="30" fill="#CD2727"/><text x="400" y="990" font-family="Arial,sans-serif" font-size="16" font-weight="bold" fill="white" text-anchor="middle">AIRPAK EXPRESS</text></svg>