<svg xmlns="http://www.w3.org/2000/svg" viewBox="0 0 800 1100">
  <defs><linearGradient id="b6" x1="0" y1="0" x2="0" y2="1"><stop offset="0%" stop-color="#fff"/><stop offset="100%" stop-color="#f5f5f5"/></linearGradient><linearGradient id="g6" x1="0" y1="0" x2="1" y2="1"><stop offset="0%" stop-color="#CD2727"/><stop offset="100%" stop-color="#9b1a1a"/></linearGradient></defs>
  <rect width="800" height="1100" fill="url(#b6)"/>
  <rect x="40" y="40" width="720" height="1020" rx="20" fill="none" stroke="#CD2727" stroke-width="2"/>
  <!-- Package -->
  <rect x="260" y="400" width="280" height="220" rx="16" fill="#373F41"/>
  <rect x="300" y="350" width="200" height="60" rx="8" fill="#CD2727"/>
  <rect x="260" y="400" width="280" height="220" rx="16" fill="none" stroke="#CD2727" stroke-width="3"/>
  <!-- Tape -->
  <rect x="380" y="350" width="40" height="270" fill="rgba(205,39,39,0.3)"/>
  <!-- Magnifying glass -->
  <circle cx="580" cy="350" r="80" fill="none" stroke="#CD2727" stroke-width="8"/>
  <circle cx="580" cy="350" r="65" fill="rgba(255,255,255,0.8)"/>
  <line x1="638" y1="408" x2="700" y2="470" stroke="#CD2727" stroke-width="10" stroke-linecap="round"/>
  <!-- Search icon inside magnifier -->
  <circle cx="580" cy="340" r="30" fill="none" stroke="#CD2727" stroke-width="4"/>
  <line x1="600" y1="360" x2="615" y2="375" stroke="#CD2727" stroke-width="4" stroke-linecap="round"/>
  <!-- Tracking path -->
  <circle cx="200" cy="300" r="20" fill="#CD2727"/>
  <line x1="220" y1="300" x2="320" y2="300" stroke="#CD2727" stroke-width="3" stroke-dasharray="6,3"/>
  <circle cx="400" cy="300" r="20" fill="#CD2727"/>
  <line x1="420" y1="300" x2="500" y2="300" stroke="#CD2727" stroke-width="3" stroke-dasharray="6,3"/>
  <circle cx="580" cy="300" r="20" fill="#CD2727"/>
  <!-- Title -->
  <rect x="100" y="680" width="600" height="80" rx="12" fill="url(#g6)"/>
  <text x="400" y="728" font-family="Arial,sans-serif" font-size="42" font-weight="bold" fill="white" text-anchor="middle">TRACK &amp; TRACE</text>
  <text x="400" y="810" font-family="Arial,sans-serif" font-size="26" fill="#373F41" text-anchor="middle">Real-time shipment visibility</text>
  <text x="400" y="860" font-family="Arial,sans-serif" font-size="20" fill="#999" text-anchor="middle">From pickup to delivery</text>
  <rect x="280" y="950" width="240" height="60" rx="30" fill="#CD2727"/>
  <text x="400" y="990" font-family="Arial,sans-serif" font-size="16" font-weight="bold" fill="white" text-anchor="middle">AIRPAK EXPRESS</text>
</svg>