<svg xmlns="http://www.w3.org/2000/svg" viewBox="0 0 800 1100"><defs><linearGradient id="b15" x1="0" y1="0" x2="0" y2="1"><stop offset="0%" stop-color="#fff"/><stop offset="100%" stop-color="#f5f5f5"/></linearGradient><linearGradient id="g15" x1="0" y1="0" x2="1" y2="1"><stop offset="0%" stop-color="#CD2727"/><stop offset="100%" stop-color="#9b1a1a"/></linearGradient></defs><rect width="800" height="1100" fill="url(#b15)"/><rect x="40" y="40" width="720" height="1020" rx="20" fill="none" stroke="#CD2727" stroke-width="2"/><path d="M400 160 L440 280 L560 280 L480 360 L520 480 L400 400 L280 480 L320 360 L240 280 L360 280 Z" fill="#CD2727"/><path d="M400 200 L430 290 L540 290 L470 355 L505 460 L400 395 L295 460 L330 355 L260 290 L370 290 Z" fill="#fff" opacity="0.3"/><circle cx="400" cy="420" r="80" fill="none" stroke="#fff" stroke-width="3" stroke-dasharray="8,4"/><rect x="100" y="680" width="600" height="80" rx="12" fill="url(#g15)"/><text x="400" y="728" font-family="Arial,sans-serif" font-size="42" font-weight="bold" fill="white" text-anchor="middle">FAST SHIPPING</text><text x="400" y="810" font-family="Arial,sans-serif" font-size="26" fill="#373F41" text-anchor="middle">When speed matters most</text><text x="400" y="860" font-family="Arial,sans-serif" font-size="20" fill="#999" text-anchor="middle">Same day • Next day • Express</text><rect x="280" y="950" width="240" height="60" rx="30" fill="#CD2727"/><text x="400" y="990" font-family="Arial,sans-serif" font-size="16" font-weight="bold" fill="white" text-anchor="middle">AIRPAK EXPRESS</text></svg>