<svg xmlns="http://www.w3.org/2000/svg" viewBox="0 0 800 1100"><defs><linearGradient id="bg28" x1="0" y1="0" x2="0" y2="1"><stop offset="0%" stop-color="#fff"/><stop offset="100%" stop-color="#f5f5f5"/></linearGradient><linearGradient id="gr28" x1="0" y1="0" x2="1" y2="1"><stop offset="0%" stop-color="#CD2727"/><stop offset="100%" stop-color="#9b1a1a"/></linearGradient></defs><rect width="800" height="1100" fill="url(#bg28)"/><rect x="40" y="40" width="720" height="1020" rx="20" fill="none" stroke="#CD2727" stroke-width="2"/><circle cx="280" cy="380" r="50" fill="none" stroke="#CD2727" stroke-width="5"/><circle cx="400" cy="380" r="50" fill="none" stroke="#CD2727" stroke-width="5"/><circle cx="520" cy="380" r="50" fill="none" stroke="#CD2727" stroke-width="5"/><circle cx="340" cy="460" r="50" fill="none" stroke="#CD2727" stroke-width="5"/><circle cx="460" cy="460" r="50" fill="none" stroke="#CD2727" stroke-width="5"/><line x1="280" y1="330" x2="280" y2="280" stroke="#CD2727" stroke-width="4"/><line x1="330" y1="380" x2="370" y2="380" stroke="#CD2727" stroke-width="4"/><line x1="400" y1="330" x2="400" y2="280" stroke="#CD2727" stroke-width="4"/><line x1="450" y1="380" x2="490" y2="380" stroke="#CD2727" stroke-width="4"/><line x1="520" y1="330" x2="520" y2="280" stroke="#CD2727" stroke-width="4"/><line x1="340" y1="510" x2="340" y2="560" stroke="#CD2727" stroke-width="4"/><line x1="460" y1="510" x2="460" y2="560" stroke="#CD2727" stroke-width="4"/><rect x="100" y="680" width="600" height="80" rx="12" fill="url(#gr28)"/><text x="400" y="728" font-family="Arial,sans-serif" font-size="38" font-weight="bold" fill="white" text-anchor="middle">SUPPLY CHAIN MGMT</text><text x="400" y="810" font-family="Arial,sans-serif" font-size="26" fill="#373F41" text-anchor="middle">End-to-end visibility</text><text x="400" y="860" font-family="Arial,sans-serif" font-size="20" fill="#999" text-anchor="middle">Planning • Execution • Optimization</text><rect x="280" y="950" width="240" height="60" rx="30" fill="#CD2727"/><text x="400" y="990" font-family="Arial,sans-serif" font-size="16" font-weight="bold" fill="white" text-anchor="middle">AIRPAK EXPRESS</text></svg>