<svg xmlns="http://www.w3.org/2000/svg" viewBox="0 0 800 1100"><defs><linearGradient id="b8" x1="0" y1="0" x2="0" y2="1"><stop offset="0%" stop-color="#fff"/><stop offset="100%" stop-color="#f5f5f5"/></linearGradient><linearGradient id="g8" x1="0" y1="0" x2="1" y2="1"><stop offset="0%" stop-color="#0066CC"/><stop offset="100%" stop-color="#004499"/></linearGradient></defs><rect width="800" height="1100" fill="url(#b8)"/><rect x="40" y="40" width="720" height="1020" rx="20" fill="none" stroke="#0066CC" stroke-width="2"/><path d="M0 500 Q80 440 160 480 Q240 520 320 470 Q400 420 480 460 Q560 500 640 460 Q720 420 800 480 L800 700 L0 700 Z" fill="#0066CC" opacity="0.2"/><path d="M0 540 Q80 480 160 520 Q240 560 320 510 Q400 460 480 500 Q560 540 640 500 Q720 460 800 520 L800 700 L0 700 Z" fill="#0066CC" opacity="0.3"/><rect x="280" y="300" width="240" height="160" rx="12" fill="#0066CC"/><path d="M360 300 L280 220 L200 300" fill="#004499"/><rect x="280" y="300" width="240" height="160" rx="12" fill="none" stroke="#fff" stroke-width="2"/><text x="400" y="560" font-family="Arial,sans-serif" font-size="22" font-weight="bold" fill="#0066CC" text-anchor="middle">OCEAN FREIGHT</text><rect x="100" y="680" width="600" height="80" rx="12" fill="url(#g8)"/><text x="400" y="728" font-family="Arial,sans-serif" font-size="38" font-weight="bold" fill="white" text-anchor="middle">OCEAN FREIGHT</text><text x="400" y="810" font-family="Arial,sans-serif" font-size="26" fill="#373F41" text-anchor="middle">World's oceans, our network</text><text x="400" y="860" font-family="Arial,sans-serif" font-size="20" fill="#999" text-anchor="middle">FCL • LCL • RoRo • Breakbulk</text><rect x="280" y="950" width="240" height="60" rx="30" fill="#0066CC"/><text x="400" y="990" font-family="Arial,sans-serif" font-size="16" font-weight="bold" fill="white" text-anchor="middle">AIRPAK EXPRESS</text></svg>