<svg xmlns="http://www.w3.org/2000/svg" viewBox="0 0 800 1100"><defs><linearGradient id="b9" x1="0" y1="0" x2="0" y2="1"><stop offset="0%" stop-color="#fff"/><stop offset="100%" stop-color="#f5f5f5"/></linearGradient><linearGradient id="g9" x1="0" y1="0" x2="1" y2="1"><stop offset="0%" stop-color="#CD2727"/><stop offset="100%" stop-color="#9b1a1a"/></linearGradient></defs><rect width="800" height="1100" fill="url(#b9)"/><rect x="40" y="40" width="720" height="1020" rx="20" fill="none" stroke="#CD2727" stroke-width="2"/><ellipse cx="400" cy="480" rx="220" ry="120" fill="#373F41"/><ellipse cx="400" cy="480" rx="200" ry="100" fill="#CD2727"/><ellipse cx="400" cy="480" rx="80" ry="35" fill="#9b1a1a"/><polygon points="620,480 750,440 750,520" fill="#373F41"/><rect x="340" y="360" width="120" height="60" rx="8" fill="#373F41"/><line x1="340" y1="420" x2="460" y2="420" stroke="#CD2727" stroke-width="4"/><circle cx="260" cy="540" r="40" fill="#222" stroke="#444" stroke-width="3"/><circle cx="540" cy="540" r="40" fill="#222" stroke="#444" stroke-width="3"/><text x="400" y="200" font-family="Arial,sans-serif" font-size="20" font-weight="bold" fill="#CD2727" text-anchor="middle">&#9992; AIR FREIGHT</text><rect x="100" y="680" width="600" height="80" rx="12" fill="url(#g9)"/><text x="400" y="728" font-family="Arial,sans-serif" font-size="38" font-weight="bold" fill="white" text-anchor="middle">AIR FREIGHT</text><text x="400" y="810" font-family="Arial,sans-serif" font-size="26" fill="#373F41" text-anchor="middle">Speed across continents</text><text x="400" y="860" font-family="Arial,sans-serif" font-size="20" fill="#999" text-anchor="middle">Express • Economy • Charter</text><rect x="280" y="950" width="240" height="60" rx="30" fill="#CD2727"/><text x="400" y="990" font-family="Arial,sans-serif" font-size="16" font-weight="bold" fill="white" text-anchor="middle">AIRPAK EXPRESS</text></svg>