<svg xmlns="http://www.w3.org/2000/svg" viewBox="0 0 800 1100"><defs><linearGradient id="b7" x1="0" y1="0" x2="0" y2="1"><stop offset="0%" stop-color="#fff"/><stop offset="100%" stop-color="#f5f5f5"/></linearGradient><linearGradient id="g7" x1="0" y1="0" x2="1" y2="1"><stop offset="0%" stop-color="#CD2727"/><stop offset="100%" stop-color="#9b1a1a"/></linearGradient></defs><rect width="800" height="1100" fill="url(#b7)"/><rect x="40" y="40" width="720" height="1020" rx="20" fill="none" stroke="#CD2727" stroke-width="2"/><rect x="200" y="300" width="400" height="320" rx="20" fill="#CD2727"/><rect x="240" y="280" width="320" height="60" rx="12" fill="#9b1a1a"/><rect x="200" y="300" width="400" height="320" rx="20" fill="none" stroke="#fff" stroke-width="2" stroke-dasharray="8,4"/><rect x="280" y="480" width="240" height="8" rx="4" fill="#fff" opacity="0.5"/><rect x="280" y="510" width="180" height="8" rx="4" fill="#fff" opacity="0.3"/><rect x="280" y="540" width="200" height="8" rx="4" fill="#fff" opacity="0.3"/><rect x="100" y="680" width="600" height="80" rx="12" fill="url(#g7)"/><text x="400" y="728" font-family="Arial,sans-serif" font-size="38" font-weight="bold" fill="white" text-anchor="middle">SHIPPING SOLUTIONS</text><text x="400" y="810" font-family="Arial,sans-serif" font-size="26" fill="#373F41" text-anchor="middle">Tailored to your business</text><text x="400" y="860" font-family="Arial,sans-serif" font-size="20" fill="#999" text-anchor="middle">Custom • Flexible • Reliable</text><rect x="280" y="950" width="240" height="60" rx="30" fill="#CD2727"/><text x="400" y="990" font-family="Arial,sans-serif" font-size="16" font-weight="bold" fill="white" text-anchor="middle">AIRPAK EXPRESS</text></svg>