<svg xmlns="http://www.w3.org/2000/svg" viewBox="0 0 800 1100"><defs><linearGradient id="b12" x1="0" y1="0" x2="0" y2="1"><stop offset="0%" stop-color="#fff"/><stop offset="100%" stop-color="#f5f5f5"/></linearGradient><linearGradient id="g12" x1="0" y1="0" x2="1" y2="1"><stop offset="0%" stop-color="#CD2727"/><stop offset="100%" stop-color="#9b1a1a"/></linearGradient></defs><rect width="800" height="1100" fill="url(#b12)"/><rect x="40" y="40" width="720" height="1020" rx="20" fill="none" stroke="#CD2727" stroke-width="2"/><rect x="240" y="280" width="320" height="400" rx="12" fill="#fff" stroke="#CD2727" stroke-width="3"/><line x1="280" y1="340" x2="520" y2="340" stroke="#eee" stroke-width="2"/><line x1="280" y1="390" x2="480" y2="390" stroke="#eee" stroke-width="2"/><line x1="280" y1="440" x2="500" y2="440" stroke="#eee" stroke-width="2"/><line x1="280" y1="490" x2="460" y2="490" stroke="#eee" stroke-width="2"/><line x1="280" y1="540" x2="420" y2="540" stroke="#eee" stroke-width="2"/><line x1="280" y1="590" x2="490" y2="590" stroke="#eee" stroke-width="2"/><rect x="440" y="320" width="80" height="50" rx="8" fill="#CD2727"/><text x="480" y="352" font-family="Arial,sans-serif" font-size="10" font-weight="bold" fill="white" text-anchor="middle">APPROVED</text><path d="M300 320 L340 360 L400 300" stroke="#CD2727" stroke-width="6" fill="none" stroke-linecap="round" stroke-linejoin="round"/><rect x="100" y="720" width="600" height="80" rx="12" fill="url(#g12)"/><text x="400" y="768" font-family="Arial,sans-serif" font-size="38" font-weight="bold" fill="white" text-anchor="middle">CUSTOMS CLEARANCE</text><text x="400" y="850" font-family="Arial,sans-serif" font-size="26" fill="#373F41" text-anchor="middle">Seamless border crossing</text><text x="400" y="900" font-family="Arial,sans-serif" font-size="20" fill="#999" text-anchor="middle">IOR • EOR • DDP • DDU</text><rect x="280" y="950" width="240" height="60" rx="30" fill="#CD2727"/><text x="400" y="990" font-family="Arial,sans-serif" font-size="16" font-weight="bold" fill="white" text-anchor="middle">AIRPAK EXPRESS</text></svg>