<svg xmlns="http://www.w3.org/2000/svg" viewBox="0 0 800 1100"><defs><linearGradient id="b13" x1="0" y1="0" x2="0" y2="1"><stop offset="0%" stop-color="#fff"/><stop offset="100%" stop-color="#f5f5f5"/></linearGradient><linearGradient id="g13" x1="0" y1="0" x2="1" y2="1"><stop offset="0%" stop-color="#CD2727"/><stop offset="100%" stop-color="#9b1a1a"/></linearGradient></defs><rect width="800" height="1100" fill="url(#b13)"/><rect x="40" y="40" width="720" height="1020" rx="20" fill="none" stroke="#CD2727" stroke-width="2"/><path d="M400 200 A150 150 0 1 1 399 200" fill="none" stroke="#CD2727" stroke-width="0"/><path d="M280 520 A140 140 0 1 0 520 520" fill="none" stroke="#CD2727" stroke-width="12" stroke-linecap="round"/><polygon points="340,400 280,480 260,380 340,350" fill="#CD2727"/><polygon points="460,400 520,480 540,380 460,350" fill="#CD2727"/><path d="M340 400 L460 400" stroke="#CD2727" stroke-width="12" stroke-linecap="round"/><text x="400" y="320" font-family="Arial,sans-serif" font-size="28" font-weight="bold" fill="#CD2727" text-anchor="middle">REVERSE</text><rect x="100" y="680" width="600" height="80" rx="12" fill="url(#g13)"/><text x="400" y="728" font-family="Arial,sans-serif" font-size="38" font-weight="bold" fill="white" text-anchor="middle">REVERSE LOGISTICS</text><text x="400" y="810" font-family="Arial,sans-serif" font-size="26" fill="#373F41" text-anchor="middle">Returns handled right</text><text x="400" y="860" font-family="Arial,sans-serif" font-size="20" fill="#999" text-anchor="middle">Refurbish • Recycle • Return</text><rect x="280" y="950" width="240" height="60" rx="30" fill="#CD2727"/><text x="400" y="990" font-family="Arial,sans-serif" font-size="16" font-weight="bold" fill="white" text-anchor="middle">AIRPAK EXPRESS</text></svg>