<svg xmlns="http://www.w3.org/2000/svg" viewBox="0 0 800 1100"><defs><linearGradient id="b11" x1="0" y1="0" x2="0" y2="1"><stop offset="0%" stop-color="#fff"/><stop offset="100%" stop-color="#f5f5f5"/></linearGradient><linearGradient id="g11" x1="0" y1="0" x2="1" y2="1"><stop offset="0%" stop-color="#CD2727"/><stop offset="100%" stop-color="#9b1a1a"/></linearGradient></defs><rect width="800" height="1100" fill="url(#b11)"/><rect x="40" y="40" width="720" height="1020" rx="20" fill="none" stroke="#CD2727" stroke-width="2"/><circle cx="400" cy="380" r="140" fill="none" stroke="#CD2727" stroke-width="6"/><circle cx="400" cy="380" r="110" fill="#CD2727" opacity="0.1"/><rect x="320" y="320" width="60" height="50" rx="4" fill="#CD2727"/><rect x="390" y="320" width="50" height="50" rx="4" fill="#9b1a1a"/><rect x="350" y="380" width="50" height="50" rx="4" fill="#CD2727"/><rect x="410" y="380" width="50" height="50" rx="4" fill="#9b1a1a"/><rect x="340" y="440" width="50" height="50" rx="4" fill="#CD2727"/><rect x="400" y="440" width="60" height="50" rx="4" fill="#9b1a1a"/><path d="M250 300 Q400 200 550 300" stroke="#CD2727" stroke-width="3" fill="none"/><path d="M270 310 Q400 220 530 310" stroke="#CD2727" stroke-width="2" fill="none"/><text x="400" y="580" font-family="Arial,sans-serif" font-size="22" font-weight="bold" fill="#CD2727" text-anchor="middle">eCOMMERCE</text><rect x="100" y="680" width="600" height="80" rx="12" fill="url(#g11)"/><text x="400" y="728" font-family="Arial,sans-serif" font-size="36" font-weight="bold" fill="white" text-anchor="middle">eCOMMERCE FULFILLMENT</text><text x="400" y="810" font-family="Arial,sans-serif" font-size="26" fill="#373F41" text-anchor="middle">From click to doorstep</text><text x="400" y="860" font-family="Arial,sans-serif" font-size="20" fill="#999" text-anchor="middle">Amazon • eBay • Shopify • WooCommerce</text><rect x="280" y="950" width="240" height="60" rx="30" fill="#CD2727"/><text x="400" y="990" font-family="Arial,sans-serif" font-size="16" font-weight="bold" fill="white" text-anchor="middle">AIRPAK EXPRESS</text></svg>