<svg xmlns="http://www.w3.org/2000/svg" viewBox="0 0 800 1100">
  <defs><linearGradient id="b4" x1="0" y1="0" x2="0" y2="1"><stop offset="0%" stop-color="#fff"/><stop offset="100%" stop-color="#f5f5f5"/></linearGradient><linearGradient id="g4" x1="0" y1="0" x2="1" y2="1"><stop offset="0%" stop-color="#CD2727"/><stop offset="100%" stop-color="#9b1a1a"/></linearGradient></defs>
  <rect width="800" height="1100" fill="url(#b4)"/>
  <rect x="40" y="40" width="720" height="1020" rx="20" fill="none" stroke="#CD2727" stroke-width="2"/>
  <!-- Cargo plane -->
  <ellipse cx="400" cy="260" rx="180" ry="40" fill="#373F41"/>
  <ellipse cx="400" cy="260" rx="160" ry="30" fill="#CD2727"/>
  <polygon points="580,260 700,240 700,280" fill="#373F41"/>
  <ellipse cx="400" cy="260" rx="60" ry="15" fill="#CD2727" opacity="0.5"/>
  <!-- Wings -->
  <rect x="200" y="280" width="180" height="60" rx="8" fill="#373F41"/>
  <rect x="420" y="280" width="180" height="60" rx="8" fill="#373F41"/>
  <!-- Engines -->
  <ellipse cx="260" cy="330" rx="30" ry="18" fill="#222"/>
  <ellipse cx="540" cy="330" rx="30" ry="18" fill="#222"/>
  <!-- Ocean wave -->
  <path d="M0 580 Q100 540 200 580 Q300 620 400 580 Q500 540 600 580 Q700 620 800 580 L800 700 L0 700 Z" fill="#0066CC" opacity="0.3"/>
  <!-- Ship -->
  <path d="M100 600 L700 600 L680 680 L120 680 Z" fill="#373F41"/>
  <rect x="350" y="520" width="100" height="80" rx="4" fill="#CD2727"/>
  <rect x="330" y="460" width="140" height="60" rx="4" fill="#444"/>
  <!-- Truck -->
  <rect x="500" y="750" width="120" height="60" rx="8" fill="#CD2727"/>
  <rect x="620" y="760" width="50" height="50" rx="4" fill="#9b1a1a"/>
  <circle cx="530" cy="810" r="20" fill="#373F41"/><circle cx="570" cy="810" r="20" fill="#373F41"/>
  <circle cx="650" cy="810" r="20" fill="#373F41"/>
  <!-- Title -->
  <rect x="100" y="870" width="600" height="80" rx="12" fill="url(#g4)"/>
  <text x="400" y="928" font-family="Arial,sans-serif" font-size="36" font-weight="bold" fill="white" text-anchor="middle">INTERNATIONAL FREIGHT</text>
  <text x="400" y="980" font-family="Arial,sans-serif" font-size="20" fill="#373F41" text-anchor="middle">Air • Ocean • Road — All Modes</text>
  <rect x="280" y="1020" width="240" height="30" rx="15" fill="#373F41" opacity="0.3"/>
  <text x="400" y="1042" font-family="Arial,sans-serif" font-size="14" font-weight="bold" fill="#CD2727" text-anchor="middle">AIRPAK EXPRESS</text>
</svg>