<svg xmlns="http://www.w3.org/2000/svg" viewBox="0 0 800 1100"><defs><linearGradient id="bg24" x1="0" y1="0" x2="0" y2="1"><stop offset="0%" stop-color="#fff"/><stop offset="100%" stop-color="#f5f5f5"/></linearGradient><linearGradient id="gr24" x1="0" y1="0" x2="1" y2="1"><stop offset="0%" stop-color="#CD2727"/><stop offset="100%" stop-color="#9b1a1a"/></linearGradient></defs><rect width="800" height="1100" fill="url(#bg24)"/><rect x="40" y="40" width="720" height="1020" rx="20" fill="none" stroke="#CD2727" stroke-width="2"/><rect x="200" y="300" width="400" height="260" rx="16" fill="#CD2727"/><rect x="230" y="290" width="340" height="50" rx="8" fill="#9b1a1a"/><path d="M400 350 A60 60 0 1 1 400 470 A60 60 0 1 1 400 350" fill="none" stroke="#fff" stroke-width="4"/><path d="M400 350 A60 60 0 1 1 400 470 A60 60 0 1 1 400 350" fill="none" stroke="#373F41" stroke-width="4" stroke-dasharray="12,6" stroke-dashoffset="20" transform="rotate(-90 400 410)"/><path d="M340 400 L400 350 L460 400" stroke="#fff" stroke-width="4" fill="none" stroke-linecap="round" stroke-linejoin="round"/><text x="400" y="640" font-family="Arial,sans-serif" font-size="22" font-weight="bold" fill="#CD2727" text-anchor="middle">RETURNS MADE EASY</text><rect x="100" y="680" width="600" height="80" rx="12" fill="url(#gr24)"/><text x="400" y="728" font-family="Arial,sans-serif" font-size="42" font-weight="bold" fill="white" text-anchor="middle">RETURNS MADE EASY</text><text x="400" y="810" font-family="Arial,sans-serif" font-size="26" fill="#373F41" text-anchor="middle">Hassle-free returns processing</text><text x="400" y="860" font-family="Arial,sans-serif" font-size="20" fill="#999" text-anchor="middle">Label generation • Tracking • Refund</text><rect x="280" y="950" width="240" height="60" rx="30" fill="#CD2727"/><text x="400" y="990" font-family="Arial,sans-serif" font-size="16" font-weight="bold" fill="white" text-anchor="middle">AIRPAK EXPRESS</text></svg>