<svg xmlns="http://www.w3.org/2000/svg" viewBox="0 0 800 1100"><defs><linearGradient id="bg21" x1="0" y1="0" x2="0" y2="1"><stop offset="0%" stop-color="#fff"/><stop offset="100%" stop-color="#f5f5f5"/></linearGradient><linearGradient id="gr21" x1="0" y1="0" x2="1" y2="1"><stop offset="0%" stop-color="#CD2727"/><stop offset="100%" stop-color="#9b1a1a"/></linearGradient></defs><rect width="800" height="1100" fill="url(#bg21)"/><rect x="40" y="40" width="720" height="1020" rx="20" fill="none" stroke="#CD2727" stroke-width="2"/><rect x="260" y="260" width="280" height="300" rx="16" fill="#373F41"/><rect x="290" y="250" width="220" height="50" rx="10" fill="#CD2727"/><line x1="290" y1="330" x2="510" y2="330" stroke="#555" stroke-width="2"/><line x1="290" y1="370" x2="470" y2="370" stroke="#555" stroke-width="2"/><line x1="290" y1="410" x2="490" y2="410" stroke="#555" stroke-width="2"/><line x1="290" y1="450" x2="430" y2="450" stroke="#555" stroke-width="2"/><circle cx="430" cy="550" r="30" fill="#CD2727"/><text x="430" y="558" font-family="Arial,sans-serif" font-size="14" font-weight="bold" fill="white" text-anchor="middle">=</text><rect x="100" y="680" width="600" height="80" rx="12" fill="url(#gr21)"/><text x="400" y="728" font-family="Arial,sans-serif" font-size="42" font-weight="bold" fill="white" text-anchor="middle">INSTANT QUOTE</text><text x="400" y="810" font-family="Arial,sans-serif" font-size="26" fill="#373F41" text-anchor="middle">Know your cost instantly</text><text x="400" y="860" font-family="Arial,sans-serif" font-size="20" fill="#999" text-anchor="middle">Free calculator • No obligation</text><rect x="280" y="950" width="240" height="60" rx="30" fill="#CD2727"/><text x="400" y="990" font-family="Arial,sans-serif" font-size="16" font-weight="bold" fill="white" text-anchor="middle">AIRPAK EXPRESS</text></svg>