<svg xmlns="http://www.w3.org/2000/svg" viewBox="0 0 800 1100">
  <defs><linearGradient id="b2" x1="0" y1="0" x2="0" y2="1"><stop offset="0%" stop-color="#fff"/><stop offset="100%" stop-color="#f5f5f5"/></linearGradient><linearGradient id="g2" x1="0" y1="0" x2="1" y2="1"><stop offset="0%" stop-color="#CD2727"/><stop offset="100%" stop-color="#9b1a1a"/></linearGradient></defs>
  <rect width="800" height="1100" fill="url(#b2)"/>
  <rect x="40" y="40" width="720" height="1020" rx="20" fill="none" stroke="#CD2727" stroke-width="2"/>
  <!-- Warehouse building -->
  <rect x="150" y="320" width="500" height="280" rx="8" fill="#373F41"/>
  <polygon points="100,320 400,180 700,320" fill="#CD2727"/>
  <rect x="200" y="380" width="100" height="100" rx="4" fill="rgba(255,255,255,0.2)" stroke="white" stroke-width="2"/>
  <rect x="350" y="380" width="100" height="100" rx="4" fill="rgba(255,255,255,0.2)" stroke="white" stroke-width="2"/>
  <rect x="500" y="380" width="100" height="100" rx="4" fill="rgba(255,255,255,0.2)" stroke="white" stroke-width="2"/>
  <rect x="200" y="520" width="100" height="80" rx="4" fill="rgba(255,255,255,0.15)" stroke="white" stroke-width="2"/>
  <rect x="350" y="520" width="100" height="80" rx="4" fill="rgba(255,255,255,0.15)" stroke="white" stroke-width="2"/>
  <rect x="500" y="520" width="100" height="80" rx="4" fill="rgba(255,255,255,0.15)" stroke="white" stroke-width="2"/>
  <!-- Boxes -->
  <rect x="280" y="440" width="60" height="60" rx="4" fill="#CD2727" stroke="white" stroke-width="1"/>
  <rect x="430" y="440" width="60" height="60" rx="4" fill="#fff" stroke="#CD2727" stroke-width="1"/>
  <rect x="560" y="440" width="60" height="60" rx="4" fill="#CD2727" stroke="white" stroke-width="1"/>
  <!-- Title -->
  <rect x="100" y="680" width="600" height="80" rx="12" fill="url(#g2)"/>
  <text x="400" y="738" font-family="Arial,sans-serif" font-size="36" font-weight="bold" fill="white" text-anchor="middle">WAREHOUSING &amp; FULFILLMENT</text>
  <text x="400" y="820" font-family="Arial,sans-serif" font-size="28" fill="#373F41" text-anchor="middle">Storage • Distribution • kitting</text>
  <text x="400" y="870" font-family="Arial,sans-serif" font-size="22" fill="#999" text-anchor="middle">Cross-docking • Reverse logistics</text>
  <rect x="280" y="950" width="240" height="60" rx="30" fill="#CD2727"/>
  <text x="400" y="990" font-family="Arial,sans-serif" font-size="16" font-weight="bold" fill="white" text-anchor="middle">AIRPAK EXPRESS</text>
</svg>