<svg xmlns="http://www.w3.org/2000/svg" viewBox="0 0 800 1100"><defs><linearGradient id="bg22" x1="0" y1="0" x2="0" y2="1"><stop offset="0%" stop-color="#fff"/><stop offset="100%" stop-color="#f5f5f5"/></linearGradient><linearGradient id="gr22" x1="0" y1="0" x2="1" y2="1"><stop offset="0%" stop-color="#CD2727"/><stop offset="100%" stop-color="#9b1a1a"/></linearGradient></defs><rect width="800" height="1100" fill="url(#bg22)"/><rect x="40" y="40" width="720" height="1020" rx="20" fill="none" stroke="#CD2727" stroke-width="2"/><rect x="220" y="280" width="360" height="260" rx="16" fill="#fff" stroke="#CD2727" stroke-width="4"/><line x1="260" y1="340" x2="540" y2="340" stroke="#eee" stroke-width="3"/><line x1="260" y1="390" x2="500" y2="390" stroke="#eee" stroke-width="3"/><line x1="260" y1="440" x2="480" y2="440" stroke="#eee" stroke-width="3"/><rect x="460" y="480" width="80" height="40" rx="8" fill="#CD2727"/><path d="M430 480 L460 450 L490 480" fill="#CD2727" opacity="0.5"/><rect x="100" y="680" width="600" height="80" rx="12" fill="url(#gr22)"/><text x="400" y="728" font-family="Arial,sans-serif" font-size="38" font-weight="bold" fill="white" text-anchor="middle">OPEN ACCOUNT</text><text x="400" y="810" font-family="Arial,sans-serif" font-size="26" fill="#373F41" text-anchor="middle">Business account, simplified</text><text x="400" y="860" font-family="Arial,sans-serif" font-size="20" fill="#999" text-anchor="middle">Credit terms • Bulk pricing • Reports</text><rect x="280" y="950" width="240" height="60" rx="30" fill="#CD2727"/><text x="400" y="990" font-family="Arial,sans-serif" font-size="16" font-weight="bold" fill="white" text-anchor="middle">AIRPAK EXPRESS</text></svg>