<svg xmlns="http://www.w3.org/2000/svg" viewBox="0 0 800 1100"><defs><linearGradient id="b10" x1="0" y1="0" x2="0" y2="1"><stop offset="0%" stop-color="#fff"/><stop offset="100%" stop-color="#f5f5f5"/></linearGradient><linearGradient id="g10" x1="0" y1="0" x2="1" y2="1"><stop offset="0%" stop-color="#CD2727"/><stop offset="100%" stop-color="#9b1a1a"/></linearGradient></defs><rect width="800" height="1100" fill="url(#b10)"/><rect x="40" y="40" width="720" height="1020" rx="20" fill="none" stroke="#CD2727" stroke-width="2"/><rect x="160" y="350" width="480" height="160" rx="12" fill="#CD2727"/><rect x="200" y="320" width="400" height="40" rx="8" fill="#9b1a1a"/><rect x="160" y="350" width="480" height="160" rx="12" fill="none" stroke="#fff" stroke-width="2"/><rect x="640" y="380" width="60" height="100" rx="8" fill="#373F41"/><circle cx="200" cy="510" r="40" fill="#222" stroke="#CD2727" stroke-width="3"/><circle cx="340" cy="510" r="40" fill="#222" stroke="#CD2727" stroke-width="3"/><circle cx="600" cy="480" r="40" fill="#222" stroke="#CD2727" stroke-width="3"/><circle cx="680" cy="480" r="40" fill="#222" stroke="#CD2727" stroke-width="3"/><path d="M0 580 L800 580" stroke="#CD2727" stroke-width="4" stroke-dasharray="20,10"/><rect x="100" y="680" width="600" height="80" rx="12" fill="url(#g10)"/><text x="400" y="728" font-family="Arial,sans-serif" font-size="38" font-weight="bold" fill="white" text-anchor="middle">ROAD FREIGHT</text><text x="400" y="810" font-family="Arial,sans-serif" font-size="26" fill="#373F41" text-anchor="middle">Nationwide coverage</text><text x="400" y="860" font-family="Arial,sans-serif" font-size="20" fill="#999" text-anchor="middle">FTL • LTL • Part load • Express</text><rect x="280" y="950" width="240" height="60" rx="30" fill="#CD2727"/><text x="400" y="990" font-family="Arial,sans-serif" font-size="16" font-weight="bold" fill="white" text-anchor="middle">AIRPAK EXPRESS</text></svg>